#!OML:ASF F:\VICON\USERDATA\INSTALL\rory3\rory3.ASF
:FULLY-SPECIFIED
:DEGREES
2719
root -8.7903 17.6293 3.62473 2.92355 24.7864 4.81542
lowerback 13.3573 -0.453682 -4.77523
upperback 3.56507 -1.22934 -0.719514
thorax -3.64132 -0.567397 2.1385
lowerneck -6.20764 -4.52257 -7.66081
upperneck 4.82158 -5.97324 9.19118
head 2.95437 -2.79343 3.7486
rclavicle 1.91579e-014 -7.40473e-015
rhumerus -6.36616 33.805 -82.2041
rradius 129.241
rwrist 6.67212
rhand -33.6622 7.30162
rfingers 7.12502
rthumb -6.85351 -22.5674
lclavicle 1.91579e-014 -7.40473e-015
lhumerus -14.7413 -28.4926 95.9914
lradius 129.43
lwrist 2.46089
lhand -16.9822 14.2391
lfingers 7.12502
lthumb 9.25247 44.0161
rfemur -31.4933 7.54165 6.69979
rtibia 61.4746
rfoot -18.077 -4.26587
rtoes -13.2466
lfemur -7.51615 7.6607 -21.0117
ltibia 54.749
lfoot -19.2714 14.6717
ltoes -18.0307
2720
root -8.78002 17.5952 3.65239 2.52838 23.4988 5.28558
lowerback 13.2404 -0.509181 -5.24895
upperback 3.51408 -1.36401 -0.737534
thorax -3.60927 -0.632831 2.40588
lowerneck -6.53841 -4.15105 -7.59926
upperneck 5.57394 -5.475 8.80197
head 3.17749 -2.54511 3.63807
rclavicle -1.74434e-014 2.98177e-014
rhumerus -5.5587 33.7987 -81.6907
rradius 129.147
rwrist 7.64295
rhand -34.8489 5.18348
rfingers 7.12502
rthumb -7.99897 -24.6452
lclavicle -1.74434e-014 2.98177e-014
lhumerus -13.9628 -28.0113 95.1033
lradius 129.438
lwrist 2.71534
lhand -16.7716 14.3585
lfingers 7.12502
lthumb 9.45577 44.1264
rfemur -30.6157 6.57139 7.02287
rtibia 63.5914
rfoot -17.2238 -5.5499
rtoes -14.0439
lfemur -6.76542 8.52267 -21.853
ltibia 55.0064
lfoot -19.5456 16.7996
ltoes -19.3792
2721
root -8.76922 17.5489 3.678 2.22285 22.1439 5.77654
lowerback 12.9981 -0.555954 -5.69552
upperback 3.47807 -1.4754 -0.801729
thorax -3.49499 -0.689557 2.60236
lowerneck -6.89453 -3.81872 -7.56145
upperneck 6.24382 -5.02526 8.52214
head 3.39076 -2.31958 3.56426
rclavicle 1.4064e-014 -1.0138e-014
rhumerus -4.99166 33.6309 -81.473
rradius 129.232
rwrist 7.67676
rhand -34.7247 5.19213
rfingers 7.12502
rthumb -7.87909 -24.641
lclavicle 1.4064e-014 -1.0138e-014
lhumerus -13.1488 -27.4896 94.1336
lradius 129.422
lwrist 2.8992
lhand -16.3678 14.1932
lfingers 7.12502
lthumb 9.8453 43.943
rfemur -29.7335 5.73956 7.16487
rtibia 65.3457
rfoot -17.2058 -6.7112
rtoes -15.0058
lfemur -6.1938 9.37149 -22.6745
ltibia 55.3099
lfoot -19.8512 18.7613
ltoes -19.8923
2722
root -8.75639 17.5004 3.70573 1.89377 20.7595 5.95653
lowerback 12.6583 -0.618487 -5.87931
upperback 3.40005 -1.56347 -0.769738
thorax -3.37746 -0.73607 2.74583
lowerneck -7.00203 -3.39907 -7.47104
upperneck 6.64514 -4.45573 8.1776
head 3.4719 -2.04546 3.47499
rclavicle -2.10215e-014 -1.17283e-014
rhumerus -4.69099 33.395 -81.477
rradius 129.42
rwrist 7.38901
rhand -33.7804 6.44235
rfingers 7.12502
rthumb -6.96757 -23.423
lclavicle -2.10215e-014 -1.17283e-014
lhumerus -12.6248 -27.035 93.2694
lradius 129.484
lwrist 2.64934
lhand -16.4181 13.9422
lfingers 7.12502
lthumb 9.7968 43.6943
rfemur -28.7699 5.22389 7.48743
rtibia 66.5609
rfoot -17.6339 -8.11942
rtoes -15.5921
lfemur -5.82945 10.3195 -23.0759
ltibia 55.764
lfoot -20.018 19.6162
ltoes -19.9584
2723
root -8.7445 17.4574 3.73986 1.4496 19.451 5.84515
lowerback 12.3834 -0.698637 -5.8022
upperback 3.30143 -1.64367 -0.656717
thorax -3.32276 -0.777705 2.82747
lowerneck -6.98424 -2.94682 -7.31421
upperneck 6.91887 -3.84714 7.81534
head 3.49203 -1.75536 3.3733
rclavicle 5.38209e-014 -1.37161e-014
rhumerus -4.41437 33.011 -81.4322
rradius 129.487
rwrist 7.21688
rhand -33.0142 7.08437
rfingers 7.12502
rthumb -6.22796 -22.8041
lclavicle 5.38209e-014 -1.37161e-014
lhumerus -12.1254 -26.5202 92.5093
lradius 129.558
lwrist 2.57094
lhand -16.3988 13.9736
lfingers 7.12502
lthumb 9.81544 43.7249
rfemur -27.557 4.97816 8.05682
rtibia 67.0817
rfoot -17.8964 -10.3208
rtoes -15.6841
lfemur -5.5538 11.2596 -23.0307
ltibia 56.4412
lfoot -19.9624 19.972
ltoes -20.5921
2724
root -8.73612 17.4146 3.77782 1.01266 18.2666 5.69498
lowerback 12.068 -0.789243 -5.65661
upperback 3.24939 -1.72589 -0.573896
thorax -3.19974 -0.823223 2.83678
lowerneck -6.96846 -2.54102 -7.1351
upperneck 7.15653 -3.31298 7.5963
head 3.51264 -1.49556 3.30722
rclavicle -1.33683e-014 1.15295e-014
rhumerus -4.10694 32.3342 -81.3818
rradius 129.42
rwrist 7.27408
rhand -32.1403 7.83193
rfingers 7.12502
rthumb -5.3842 -22.0797
lclavicle -1.33683e-014 1.15295e-014
lhumerus -11.5003 -26.0529 91.7471
lradius 129.59
lwrist 2.78533
lhand -16.3099 14.0746
lfingers 7.12502
lthumb 9.90114 43.8218
rfemur -26.2298 4.74257 8.64712
rtibia 66.8625
rfoot -19.4403 -12.7212
rtoes -21.7834
lfemur -5.43322 12.0116 -22.857
ltibia 57.3902
lfoot -19.647 20.5023
ltoes -21.8282
